<svg width="341pt" height="329pt" viewBox="0 0 341 329" xmlns="http://www.w3.org/2000/svg"><path fill="#32363b" d="M177.96 0h3.89c12.41 1.17 23.12 9.01 30.4 18.78 12.67 16.89 18.79 38.67 16.47 59.68-1.74 11.81-3.65 23.6-5.41 35.41 26.22.09 52.43-.01 78.64.05 15.37.34 30.02 11.16 34.29 26.02 3.24 10.81.78 22.96-6.13 31.83 6.39 6.38 10.09 15.02 10.89 23.98v3.59c-.87 11.61-7.18 22.64-17.15 28.77 3.88 10.2 3.58 22.17-1.98 31.7-3.74 6.85-9.96 12.02-16.96 15.3 3.4 13.89-2.38 29.54-14.22 37.64-6.01 4.22-13.35 6.64-20.73 6.45-40.98-.03-81.96.01-122.94-.02-12.65-.42-25.19-5.02-34.98-13.09-.18 5.07.87 10.57-1.88 15.16-2.25 4.46-7 6.98-11.78 7.75h-84.6c-7.14-.76-13-6.63-13.78-13.75V157.54c.77-7.07 6.66-13.47 13.98-13.6 27.66-.09 55.33 0 83-.05 4.02-.17 8 1.53 10.81 4.37 2.38 2.27 3.27 5.52 4.66 8.4.97-1.43 1.95-2.86 2.79-4.37 13.87-25.8 27.81-51.56 41.69-77.35 3-5.16 2.34-11.29 1.98-16.98-1.31-15.86-2.4-31.73-3.67-47.59C161.5 4.59 169.45.83 177.96 0m-7.99 17.15c1.22 14.98 2.43 29.95 3.4 44.94.56 6.69-.67 13.53-3.84 19.47-14.01 25.96-28 51.92-42 77.89-2.9 7.14-10.3 10.57-15.43 15.89.04 38.11-.01 76.22.03 114.34 6.74 2.49 11.41 8.34 17.98 11.12 6.23 2.76 13.05 4.44 19.89 4.21 39.64-.03 79.29-.04 118.93 0 12.99 1.18 24.76-11.66 22.45-24.48-.79-5.67-4.24-10.4-6.63-15.46 5.61-1.42 11.75-1.24 16.82-4.34 7.22-4 11.53-12.48 10.56-20.67-.28-7.61-6.07-13.14-10.26-18.92 5.99-2.21 12.8-3.07 17.63-7.61 7.76-6.72 9.5-19.16 3.71-27.67-3.8-6.29-11.01-8.84-16.98-12.5 3.28-2.45 6.6-4.86 9.77-7.46 5.93-4.98 8.74-13.4 6.87-20.94-1.89-7.69-8.38-13.84-15.93-15.97-3.51-1.19-7.26-.91-10.91-.93-29.75 0-59.51.01-89.26-.01 2.52-17.32 5.38-34.6 7.9-51.92 1.52-14.44-2.1-29.14-9.02-41.81-4.33-7.63-10.17-15.04-18.48-18.52-5.53-2.39-12.07-1.72-17.2 1.35M14.48 158.37c.08 52.03-.04 104.06.06 156.09 27.68.08 55.36.04 83.04.01.08-52.06.05-104.12.02-156.18-27.71-.01-55.42-.17-83.12.08z"/><path fill="#758fb5" d="M14.48 158.37c27.7-.25 55.41-.09 83.12-.08.03 52.06.06 104.12-.02 156.18-27.68.03-55.36.07-83.04-.01-.1-52.03.02-104.06-.06-156.09z"/></svg>